# xmcd
#
# Track frame offsets:
#	150
#	27215
#	48410
#	69362
#	92386
#	115653
#	135535
#	151425
#	172244
#	190877
#	209427
#	233969
#	249100
#	267290
#	286865
#	306390
#
# Disc length: 4373 seconds
#
# Revision: 0
# Processed by: cddbd v1.5.2PL0 Copyright (c) Steve Scherf et al.
# Submitted via: EasyCDDAExtractor 16.0.9.1
#
DISCID=db111310
DTITLE=No Doubt - Push And Shove (Deluxe Edition)
DYEAR=2012
DGENRE=Alternative
TTITLE0=Settle Down
TTITLE1=Looking Hot
TTITLE2=One More Summer
TTITLE3=Push And Shove (Feat. Busy Signal and Major Lazer)
TTITLE4=Easy
TTITLE5=Gravity
TTITLE6=Undercover
TTITLE7=Undone
TTITLE8=Sparkle
TTITLE9=Heaven
TTITLE10=Dreaming The Same Dream
TTITLE11=Stand And Deliver (Bonus Track)
TTITLE12=Settle Down (Acoustic) (Bonus Track)
TTITLE13=Looking Hot (Acoustic) (Bonus Track)
TTITLE14=One More Summer (Acoustic) (Bonus Track)
TTITLE15=Easy (Acoustic) (Bonus Track)
EXTD=
EXTT0=
EXTT1=
EXTT2=
EXTT3=
EXTT4=
EXTT5=
EXTT6=
EXTT7=
EXTT8=
EXTT9=
EXTT10=
EXTT11=
EXTT12=
EXTT13=
EXTT14=
EXTT15=
PLAYORDER=
